<svg width="49" height="48" viewBox="0 0 49 48" fill="none" xmlns="http://www.w3.org/2000/svg">
<g filter="url(#filter0_d_15870_2139)">
<rect width="48" height="48" transform="translate(1)" fill="white"/>
<path fill-rule="evenodd" clip-rule="evenodd" d="M20.4668 16.9333C20.5927 16.7655 20.7903 16.6667 21.0002 16.6667H29.0002C29.21 16.6667 29.4076 16.7655 29.5335 16.9333L31.5335 19.6C31.62 19.7154 31.6668 19.8557 31.6668 20V29.3333C31.6668 29.8638 31.4561 30.3725 31.081 30.7475C30.706 31.1226 30.1973 31.3333 29.6668 31.3333H20.3335C19.8031 31.3333 19.2944 31.1226 18.9193 30.7475C18.5442 30.3725 18.3335 29.8638 18.3335 29.3333V20C18.3335 19.8557 18.3803 19.7154 18.4668 19.6L20.4668 16.9333ZM21.3335 18L19.6668 20.2222V29.3333C19.6668 29.5101 19.7371 29.6797 19.8621 29.8047C19.9871 29.9298 20.1567 30 20.3335 30H29.6668C29.8436 30 30.0132 29.9298 30.1382 29.8047C30.2633 29.6797 30.3335 29.5101 30.3335 29.3333V20.2222L28.6668 18H21.3335Z" fill="#313237"/>
<path fill-rule="evenodd" clip-rule="evenodd" d="M18.3335 20C18.3335 19.6318 18.632 19.3333 19.0002 19.3333H31.0002C31.3684 19.3333 31.6668 19.6318 31.6668 20C31.6668 20.3682 31.3684 20.6667 31.0002 20.6667H19.0002C18.632 20.6667 18.3335 20.3682 18.3335 20Z" fill="#313237"/>
<path fill-rule="evenodd" clip-rule="evenodd" d="M22.3337 22C22.7018 22 23.0003 22.2985 23.0003 22.6667C23.0003 23.1971 23.211 23.7058 23.5861 24.0809C23.9612 24.456 24.4699 24.6667 25.0003 24.6667C25.5308 24.6667 26.0395 24.456 26.4145 24.0809C26.7896 23.7058 27.0003 23.1971 27.0003 22.6667C27.0003 22.2985 27.2988 22 27.667 22C28.0352 22 28.3337 22.2985 28.3337 22.6667C28.3337 23.5507 27.9825 24.3986 27.3573 25.0237C26.7322 25.6488 25.8844 26 25.0003 26C24.1163 26 23.2684 25.6488 22.6433 25.0237C22.0182 24.3986 21.667 23.5507 21.667 22.6667C21.667 22.2985 21.9655 22 22.3337 22Z" fill="#313237"/>
</g>
<defs>
<filter id="filter0_d_15870_2139" x="0" y="0" width="49" height="48" filterUnits="userSpaceOnUse" color-interpolation-filters="sRGB">
<feFlood flood-opacity="0" result="BackgroundImageFix"/>
<feColorMatrix in="SourceAlpha" type="matrix" values="0 0 0 0 0 0 0 0 0 0 0 0 0 0 0 0 0 0 127 0" result="hardAlpha"/>
<feOffset dx="-1"/>
<feColorMatrix type="matrix" values="0 0 0 0 0.886275 0 0 0 0 0.901961 0 0 0 0 0.913725 0 0 0 1 0"/>
<feBlend mode="normal" in2="BackgroundImageFix" result="effect1_dropShadow_15870_2139"/>
<feBlend mode="normal" in="SourceGraphic" in2="effect1_dropShadow_15870_2139" result="shape"/>
</filter>
</defs>
</svg>
